<?xml version="1.0" standalone="no"?>
<!DOCTYPE svg PUBLIC "-//W3C//DTD SVG 20010904//EN"
 "http://www.w3.org/TR/2001/REC-SVG-20010904/DTD/svg10.dtd">
<svg version="1.0" xmlns="http://www.w3.org/2000/svg"
 width="1200.000000pt" height="1200.000000pt" viewBox="0 0 1200.000000 1200.000000"
 preserveAspectRatio="xMidYMid meet">

<g transform="translate(0.000000,1200.000000) scale(0.100000,-0.100000)"
fill="#000000" stroke="none">
<path d="M7360 11365 l0 -135 -1840 0 -1840 0 0 -150 0 -150 -245 0 -245 0 0
60 0 60 -1251 0 -1250 0 3 -27 c3 -25 9 -28 83 -44 102 -23 197 -62 206 -86 9
-25 66 -82 147 -147 37 -30 75 -64 85 -76 10 -12 21 -19 24 -16 3 3 -32 43
-78 90 -106 107 -142 146 -135 146 13 0 111 -55 118 -66 12 -19 78 -89 78 -83
0 3 -11 20 -25 39 -14 18 -23 35 -21 37 6 7 352 -243 411 -296 11 -10 61 -51
110 -91 50 -40 112 -95 139 -122 27 -27 65 -61 84 -76 44 -33 183 -170 205
-203 10 -13 17 -34 17 -46 0 -13 4 -23 9 -23 8 0 14 -35 29 -165 l7 -60 8 76
c4 42 6 82 3 90 -2 8 -7 26 -10 41 -5 22 -3 25 14 21 11 -3 30 -20 42 -37 13
-17 31 -38 40 -46 19 -16 54 -62 193 -252 47 -64 85 -119 85 -123 0 -3 11 -21
25 -39 14 -18 25 -38 25 -44 0 -7 5 -12 11 -12 5 0 7 -4 4 -10 -3 -5 -2 -10 4
-10 6 0 8 -7 4 -15 -3 -9 -1 -15 6 -13 10 3 20 -16 61 -117 5 -11 11 -31 14
-45 2 -14 14 -63 25 -110 11 -47 21 -111 21 -142 0 -36 4 -58 11 -58 8 0 10
17 6 53 -12 112 -27 200 -42 244 -20 60 -12 67 15 11 11 -23 34 -63 50 -88 16
-25 32 -52 36 -60 4 -12 65 -140 81 -172 2 -5 -39 -8 -91 -8 l-96 0 0 45 c0
56 -17 176 -34 235 -12 41 -13 33 -8 -85 l4 -130 -41 57 c-22 31 -41 59 -41
63 0 3 -18 30 -40 60 -22 30 -40 57 -40 61 0 7 -299 426 -310 434 -4 3 -20 23
-36 46 -29 40 -52 68 -169 203 -30 35 -55 67 -55 72 0 5 -13 15 -29 23 -33 18
-105 85 -144 137 -34 45 -208 221 -213 216 -2 -2 24 -33 59 -70 34 -37 73 -80
87 -96 97 -112 150 -165 180 -182 19 -11 52 -44 72 -72 21 -29 64 -84 95 -123
32 -39 83 -103 113 -143 30 -40 72 -94 93 -119 20 -26 37 -50 37 -55 0 -9 37
-60 92 -128 21 -25 38 -49 38 -54 0 -4 11 -23 25 -41 14 -18 25 -35 25 -38 0
-3 34 -56 76 -118 94 -138 127 -198 110 -198 -10 0 -116 141 -116 155 0 3 -17
29 -38 58 -21 29 -44 66 -52 82 -8 17 -32 55 -53 85 -20 30 -75 113 -122 183
-158 238 -390 527 -424 527 -16 0 -54 39 -195 200 -50 58 -109 122 -130 142
-39 38 -44 68 -6 33 11 -10 20 -15 20 -11 0 13 -45 45 -50 36 -3 -5 -32 18
-65 52 -33 34 -54 58 -47 54 6 -4 12 -3 12 3 0 10 -37 35 -53 36 -4 0 -39 29
-78 65 -111 102 -130 117 -201 166 -38 25 -68 49 -68 54 0 4 -10 10 -22 14
-13 3 -35 16 -49 28 -42 36 -258 141 -326 158 -36 9 -43 15 -43 35 l0 25 -190
0 -190 0 0 -1305 0 -1305 270 0 270 0 0 -1780 0 -1780 160 0 160 0 0 -1780 0
-1780 165 0 165 0 0 -410 0 -410 1150 0 1150 0 0 120 0 120 1840 0 1840 0 0
205 0 205 760 0 760 0 0 85 0 85 1080 0 1080 0 0 115 0 115 215 0 215 0 0
1665 0 1665 -140 0 -140 0 0 850 0 850 -75 0 -75 0 0 930 0 930 -80 0 -80 0 0
1530 0 1530 -1760 0 -1760 0 0 -135z m-6805 -454 c66 -17 132 -38 147 -46 14
-8 31 -15 37 -15 5 0 32 -13 58 -28 26 -16 84 -48 128 -72 91 -49 111 -62 224
-143 103 -74 108 -82 45 -73 -208 32 -327 33 -461 7 -114 -23 -173 -42 -214
-72 -24 -17 -33 -18 -44 -9 -13 11 -8 18 32 46 27 19 70 41 97 50 27 9 63 25
80 34 17 10 75 26 129 35 79 14 110 15 169 7 88 -13 101 -8 21 8 -139 29 -262
13 -448 -58 -98 -38 -106 -42 -111 -57 -5 -13 -12 -11 -36 12 -140 131 -198
222 -198 308 0 42 14 82 33 96 24 17 197 0 312 -30z m652 -386 c24 -1 55 -10
70 -20 32 -21 425 -416 419 -422 -2 -2 -32 7 -67 20 -110 42 -236 57 -299 37
-20 -6 -15 -8 25 -9 58 -1 265 -51 346 -82 35 -14 63 -33 75 -51 11 -16 28
-31 39 -34 22 -6 115 -111 127 -143 4 -11 16 -25 27 -31 12 -6 21 -16 21 -22
0 -6 18 -35 40 -64 41 -54 56 -85 20 -43 -10 13 -19 19 -20 14 0 -6 6 -17 13
-24 10 -12 8 -13 -8 -6 -11 4 -53 18 -94 31 -40 14 -82 29 -94 36 -39 21 -132
38 -237 43 l-105 4 140 -29 c77 -15 167 -38 200 -50 33 -12 69 -24 80 -27 11
-3 38 -13 60 -24 22 -10 52 -21 66 -24 16 -4 40 -26 59 -53 75 -104 277 -409
293 -442 22 -44 34 -63 73 -120 31 -44 64 -104 64 -115 0 -9 -189 -5 -208 4
-36 20 -194 66 -307 90 -189 40 -254 51 -301 51 -47 0 -60 4 -87 30 -18 16
-35 30 -38 30 -4 0 -33 33 -65 73 -33 39 -65 78 -72 86 -8 8 -25 37 -39 65
-45 94 -88 161 -131 205 l-34 35 40 17 c39 17 70 53 55 62 -5 3 -41 8 -80 12
-40 4 -73 10 -73 15 0 4 48 10 108 14 59 3 150 9 202 12 82 5 109 2 199 -20
109 -27 169 -34 121 -14 -45 18 -154 48 -212 58 -58 9 -420 -3 -465 -16 -28
-8 -114 80 -189 193 -30 46 -60 83 -67 83 -7 0 -26 22 -44 48 -34 50 -47 66
-131 171 -29 36 -65 81 -80 99 -15 19 -48 56 -74 84 -46 48 -53 68 -23 68 7 0
15 4 17 9 6 17 153 74 223 87 64 12 160 12 422 -1z m913 -952 c-1 -10 -39 39
-40 51 0 5 9 -3 20 -17 11 -14 20 -29 20 -34z m84 -119 c3 -8 2 -12 -4 -9 -6
3 -10 10 -10 16 0 14 7 11 14 -7z m-299 -490 c11 -3 72 -13 135 -24 63 -10
149 -30 190 -44 l75 -26 -115 4 c-63 2 -137 9 -165 15 -27 6 -94 17 -147 23
-86 9 -100 14 -124 39 l-28 29 80 -6 c43 -3 88 -7 99 -10z m15 -78 l75 -13
-91 -2 c-73 -1 -93 2 -98 14 -7 18 11 19 114 1z m-263 -12 c-3 -3 -12 -4 -19
-1 -8 3 -5 6 6 6 11 1 17 -2 13 -5z m557 -64 c54 -16 123 -41 152 -55 29 -14
58 -25 64 -25 6 0 37 -12 68 -26 31 -14 77 -35 102 -47 62 -28 97 -54 112 -82
7 -13 38 -68 69 -122 30 -54 90 -170 133 -258 43 -88 86 -176 97 -196 l19 -37
-31 -6 c-17 -3 -48 -6 -68 -6 -20 0 -52 -5 -71 -11 -102 -31 -310 -47 -379
-30 -20 6 -65 17 -101 26 -36 10 -79 28 -97 41 -17 13 -36 24 -41 24 -5 0 -21
10 -36 23 -14 12 -48 40 -74 62 -47 39 -79 78 -113 140 -9 17 -30 53 -48 80
-87 141 -128 209 -146 243 -11 20 -34 57 -51 82 -17 25 -45 72 -64 105 -18 33
-40 70 -48 83 l-14 22 233 0 c231 0 235 -1 333 -30z m381 -22 c18 -32 23 -49
14 -46 -40 17 -49 16 -14 -1 28 -14 45 -31 57 -58 20 -46 16 -52 -20 -27 -52
38 -216 113 -337 154 l-80 28 176 1 176 0 28 -51z m356 25 c6 -16 21 -50 34
-78 12 -27 30 -83 39 -122 23 -94 33 -257 17 -267 -6 -4 -11 -2 -11 4 0 7 -10
26 -22 43 -13 17 -42 69 -65 114 -22 45 -50 95 -60 110 -11 15 -23 35 -27 43
-3 8 -19 35 -35 60 -16 25 -39 62 -50 83 l-21 37 95 0 c95 0 96 0 106 -27z
m-211 -23 c0 -5 22 -44 48 -87 27 -43 56 -94 66 -113 10 -19 31 -57 46 -85 16
-27 40 -72 54 -100 14 -27 39 -72 55 -100 17 -27 30 -62 31 -77 0 -17 6 -28
14 -28 11 0 56 -76 56 -95 0 -2 17 -33 38 -67 39 -65 142 -270 142 -282 0 -13
-43 -1 -51 14 -25 49 -193 398 -224 465 -20 44 -47 94 -59 110 -12 17 -28 46
-36 65 -7 19 -18 42 -25 50 -6 8 -17 29 -25 45 -8 17 -25 44 -37 61 -13 17
-23 36 -23 43 0 7 -11 27 -24 44 -59 80 -103 192 -61 157 8 -7 15 -16 15 -20z
m330 -240 c0 -5 -4 -10 -10 -10 -5 0 -10 5 -10 10 0 6 5 10 10 10 6 0 10 -4
10 -10z m25 -108 c4 -24 3 -75 -1 -115 l-8 -72 -7 105 c-3 58 -9 121 -13 140
-7 34 -6 34 8 10 7 -14 17 -44 21 -68z m61 -169 c6 -30 30 -97 45 -125 5 -10
9 -24 9 -33 0 -8 11 -38 24 -67 13 -29 26 -62 29 -73 3 -11 19 -58 36 -104 33
-92 27 -96 -14 -11 -14 30 -30 62 -36 70 -11 18 -71 141 -93 190 -8 19 -23 48
-33 64 -13 21 -15 30 -5 33 7 3 12 22 12 44 0 45 17 52 26 12z m-903 -312 c21
-11 43 -23 50 -28 28 -21 129 -43 222 -49 98 -6 128 -3 295 32 41 9 107 18
145 21 l70 5 20 -38 c11 -20 28 -53 39 -73 10 -20 25 -44 34 -54 22 -24 7 -33
-31 -19 -19 7 -43 12 -54 12 -11 0 -46 9 -78 20 -45 16 -103 22 -249 30 -195
9 -220 14 -388 72 -61 21 -118 60 -118 80 0 11 0 11 43 -11z m228 -140 c57
-11 178 -25 269 -31 91 -6 194 -16 230 -23 63 -12 59 -12 -120 -15 -230 -4
-361 14 -462 65 -44 21 -68 43 -34 30 7 -3 60 -15 117 -26z m273 -111 c293
-33 303 -35 441 -88 80 -31 101 -49 138 -126 26 -52 35 -83 19 -61 -25 34
-188 127 -287 163 -32 11 -182 42 -305 62 -41 7 -100 23 -130 36 l-55 23 44 1
c24 0 85 -5 135 -10z m426 -17 c12 -16 33 -30 47 -33 15 -3 29 -15 35 -29 6
-19 6 -22 -4 -13 -29 23 -112 62 -134 62 -12 0 -35 5 -51 11 -15 6 -48 14 -73
19 -37 6 -27 8 57 9 100 1 102 0 123 -26z m140 5 c13 -21 52 -96 142 -273 20
-38 48 -97 63 -130 27 -61 98 -210 141 -298 13 -27 24 -53 24 -58 0 -6 16 -44
35 -85 19 -41 35 -78 35 -83 0 -5 11 -34 25 -65 28 -64 30 -76 12 -76 -7 0
-25 28 -41 63 -16 34 -41 89 -56 122 -15 33 -39 85 -53 115 -13 30 -39 85 -56
123 -17 37 -31 70 -31 74 0 3 -6 14 -14 22 -7 9 -21 39 -31 66 -10 28 -26 61
-35 75 -16 25 -49 92 -69 140 -6 14 -15 32 -21 40 -5 8 -33 65 -61 125 -29 61
-54 113 -56 118 -10 19 34 4 47 -15z m3260 -120 c0 -24 -7 -70 -14 -103 -21
-86 -12 -97 68 -89 58 6 65 5 75 -14 15 -29 25 -105 17 -136 -6 -24 -10 -26
-66 -26 -88 0 -100 -15 -100 -126 0 -206 64 -489 138 -607 13 -22 21 -45 18
-53 -6 -16 -137 -104 -185 -123 -27 -12 -34 -11 -50 3 -40 36 -99 295 -121
526 -31 347 -30 340 -77 340 -13 0 -35 -8 -50 -17 -24 -16 -26 -16 -39 2 -14
19 -19 102 -8 143 8 29 52 52 99 52 42 0 55 23 55 96 0 55 10 76 51 105 40 28
137 68 167 69 19 0 22 -5 22 -42z m1799 -5 c18 -34 34 -214 27 -309 -27 -387
-281 -750 -571 -815 -47 -10 -58 -10 -70 2 -28 28 -46 238 -22 256 6 6 41 16
77 22 76 14 163 58 168 84 3 13 -30 52 -106 125 -120 117 -167 189 -207 315
-29 91 -51 235 -38 248 16 16 221 38 237 25 10 -8 15 -41 18 -107 3 -84 8
-104 36 -162 58 -118 160 -225 201 -212 57 18 80 244 41 411 -14 64 -19 99
-12 106 11 11 95 25 164 27 36 1 50 -3 57 -16z m-3281 -100 c65 -118 158 -717
168 -1083 7 -232 13 -221 -139 -239 -143 -17 -137 -21 -192 124 -48 125 -99
230 -182 368 -125 208 -280 394 -306 368 -34 -34 30 -464 115 -763 23 -81 39
-151 35 -154 -3 -4 -54 -12 -112 -18 -129 -15 -136 -11 -164 77 -35 115 -87
487 -112 799 -13 175 -8 401 11 440 16 34 27 38 127 45 l81 6 52 -38 c80 -59
307 -335 457 -556 17 -25 38 -51 47 -58 14 -12 16 -9 16 20 0 99 -55 345 -121
543 -22 65 -38 124 -35 131 5 14 126 34 191 31 36 -1 42 -5 63 -43z m2319 -24
c104 -50 156 -139 157 -264 0 -48 -6 -72 -30 -114 -39 -73 -103 -121 -261
-198 -127 -61 -183 -104 -183 -139 0 -78 132 -137 249 -113 110 23 178 77 209
169 11 30 25 55 32 55 20 0 38 -62 39 -132 3 -202 -178 -347 -408 -330 -177
13 -310 141 -367 352 -24 90 -29 284 -11 372 42 194 163 332 327 370 81 19
173 8 247 -28z m-1522 -169 c240 -115 361 -552 231 -836 -36 -77 -123 -165
-199 -200 -52 -24 -75 -29 -143 -29 -73 0 -88 4 -157 38 -54 27 -90 53 -125
93 -194 218 -212 649 -34 846 79 87 159 119 287 115 70 -2 101 -8 140 -27z
m-2045 -722 c7 -24 19 -54 26 -68 28 -58 58 -128 74 -181 10 -31 23 -65 28
-75 20 -37 41 -90 62 -159 12 -38 37 -114 55 -167 18 -54 30 -98 26 -98 -3 0
-20 21 -37 48 -29 43 -38 69 -66 177 -6 22 -16 56 -23 75 -8 19 -19 53 -26 75
-7 22 -18 49 -24 60 -7 11 -16 33 -20 50 -3 16 -24 66 -45 110 -37 77 -80 180
-80 190 0 3 8 5 18 5 13 0 23 -13 32 -42z m4608 -578 c189 -18 346 -62 399
-112 48 -45 20 -109 -64 -152 -166 -84 -597 -94 -681 -16 -35 33 -22 70 25 70
18 0 23 -6 23 -25 0 -32 21 -40 135 -57 166 -24 434 24 499 89 14 14 26 30 26
35 0 18 -49 57 -86 68 -63 18 -270 31 -394 26 -305 -14 -367 -18 -525 -37
-224 -25 -313 -37 -410 -54 -44 -8 -100 -17 -125 -20 -93 -13 -371 -61 -800
-139 -906 -164 -1270 -209 -1680 -210 -243 0 -305 6 -419 40 -98 29 -144 100
-89 138 41 29 92 9 52 -21 -41 -30 21 -73 146 -100 70 -15 128 -18 325 -17
231 1 360 11 650 50 197 26 249 34 455 73 58 11 146 27 195 36 75 14 296 59
520 105 510 107 1079 203 1295 220 74 6 135 12 136 13 8 8 300 6 392 -3z
m-6973 -2075 c168 -150 296 -265 890 -795 129 -115 341 -304 470 -420 129
-115 340 -304 468 -418 127 -114 342 -306 477 -427 135 -120 363 -324 508
-453 144 -129 261 -236 259 -238 -5 -5 -2988 304 -2994 309 -2 3 -10 63 -18
133 -8 71 -71 642 -140 1269 -69 627 -128 1160 -132 1185 -7 54 -29 69 212
-145z"/>
<path d="M1840 8677 c0 -9 30 -17 98 -26 300 -38 371 -54 527 -116 87 -35 246
-129 297 -176 18 -16 36 -29 40 -29 6 0 -26 31 -105 101 -10 9 -54 36 -98 60
-44 24 -95 53 -112 64 -18 12 -68 31 -112 44 -44 13 -100 30 -124 37 -60 20
-283 54 -353 54 -42 0 -58 -4 -58 -13z"/>
<path d="M2455 8814 c76 -40 85 -44 85 -40 0 7 -91 56 -104 56 -6 0 3 -7 19
-16z"/>
<path d="M7153 7260 c-68 -41 -126 -166 -109 -234 8 -33 19 -33 115 4 95 37
197 101 206 129 9 29 -20 84 -54 104 -40 23 -118 22 -158 -3z"/>
<path d="M5662 7093 c-105 -51 -141 -239 -82 -426 27 -86 94 -161 153 -172 84
-16 158 22 197 100 23 45 25 62 25 170 0 101 -4 130 -23 181 -28 74 -74 132
-118 150 -44 19 -111 17 -152 -3z"/>
<path d="M1420 10445 c7 -8 17 -15 22 -15 6 0 5 7 -2 15 -7 8 -17 15 -22 15
-6 0 -5 -7 2 -15z"/>
<path d="M2661 9274 c0 -11 3 -14 6 -6 3 7 2 16 -1 19 -3 4 -6 -2 -5 -13z"/>
</g>
</svg>
